# xmcd
# 
# Track frame offsets:
#     150
#     16487
#     33770
#     61029
#     79140
#     93228
#     112798
#     135188
#     152565
#     166035
#     176931
# 
# Disc length: 2603
# 
# Revision: 0
# Processed by: cddbd v1.5.2PL0 Copyright (c) Steve Scherf et al.
# Submitted via: fre:ac v1.0.27
# 
DISCID=700a290b
DTITLE=Bukka White - Bukka White Revisited
DYEAR=1996
DGENRE=Blues
TTITLE0=Shake 'Em On Down
TTITLE1=I Am In The Heavenly Way
TTITLE2=Atlanta Special
TTITLE3=Drunk Man Blues
TTITLE4=Army Blues
TTITLE5=Aberdeen, Mississippi Blues
TTITLE6=Baby Please Don't Go
TTITLE7=New Orleans, Streamline
TTITLE8=Parchman Farm Blues
TTITLE9=Poor Boy Long Way From Home
TTITLE10=Remembrance Of Charley Patton
EXTD=
EXTT0=
EXTT1=
EXTT2=
EXTT3=
EXTT4=
EXTT5=
EXTT6=
EXTT7=
EXTT8=
EXTT9=
EXTT10=
PLAYORDER=
